<svg width="38" height="46" viewBox="0 0 38 46" fill="none" xmlns="http://www.w3.org/2000/svg">
<g clip-path="url(#clip0_15764_22797)">
<path d="M36.6411 0.877444L30.6597 0.0071312C30.4755 -0.0208306 30.2914 0.0525692 30.2347 0.104998L27.6814 3.38003C27.5078 3.60023 27.4653 3.86587 27.5255 4.10704C27.5857 4.34821 27.3768 4.56841 27.1289 4.51248L25.0289 4.05461C24.696 3.98121 24.3489 4.10704 24.14 4.37267L15.8708 14.9003C15.715 15.0995 15.4388 15.1694 15.205 15.0646L12.0603 13.6525C11.7841 13.5302 11.4618 13.5581 11.2104 13.7294L9.62736 14.8164C9.36529 14.9982 9.02178 15.0191 8.73847 14.8758L7.9452 14.4774C7.44586 14.2257 6.83674 14.5053 6.71279 15.0471L6.13909 17.5287C6.00452 18.1089 6.2595 18.7101 6.773 19.0247L7.96645 19.7482L11.8372 22.1005L13.7283 23.2469C14.2489 23.565 14.9217 23.5091 15.3821 23.1071L18.534 20.3738C18.7925 20.1501 19.1608 20.1047 19.4653 20.2585L20.4144 20.7338C20.7367 20.8946 21.1263 20.8422 21.3883 20.5975L22.989 19.1225C23.2405 18.8884 23.6123 18.8289 23.9275 18.9723L26.3073 20.0418C26.6685 20.2026 27.097 20.1012 27.3378 19.7901L28.4357 18.3955L36.7544 7.86091C37.144 7.36459 36.8783 6.63758 36.2586 6.50477L34.4029 6.09932C34.0169 6.01543 33.854 5.55756 34.1019 5.25347L36.9811 1.73727C37.2431 1.4192 37.0519 0.940358 36.6411 0.880939V0.877444Z" fill="#8257E5"/>
<path d="M9.19429 22.0621C9.02785 21.9573 8.82245 22.1215 8.89328 22.3033L9.78925 24.6241C9.85299 24.7884 9.86362 24.9666 9.81758 25.1344L9.03847 28.1508C8.98889 28.3465 9.05972 28.5528 9.22263 28.6786L11.4502 30.3878C11.652 30.5415 11.9353 30.5346 12.1301 30.3703L14.4745 28.35C14.6091 28.2347 14.7755 28.1613 14.9526 28.1438L17.5945 27.8502C17.7857 27.8292 17.8424 27.5846 17.683 27.4832L9.19429 22.0656V22.0621Z" fill="#8257E5"/>
<path d="M8.39424 29.8141C8.24196 29.6917 8.03302 29.6708 7.85949 29.7547L5.98255 30.6529C5.87631 30.7054 5.79132 30.7962 5.74882 30.9046L1.74705 40.6528C1.73643 40.6738 1.73643 40.7017 1.74705 40.7262C1.76476 40.7786 1.82142 40.8066 1.871 40.7856L2.77759 40.4431C2.80593 40.4326 2.84134 40.4291 2.86613 40.4466C2.91217 40.4745 2.92633 40.5374 2.898 40.5829L0.0153103 45.228C-0.0448934 45.3259 0.0861381 45.4308 0.171131 45.3469L10.5332 35.0709C10.6289 34.9835 10.6891 34.8612 10.6997 34.7319L10.898 32.086C10.9086 31.9252 10.8413 31.7714 10.7138 31.67L8.39424 29.8176V29.8141Z" fill="#8257E5"/>
</g>
<defs>
<clipPath id="clip0_15764_22797">
<rect width="38" height="46" fill="white"/>
</clipPath>
</defs>
</svg>
